<svg width="680" height="616" viewBox="0 0 680 616" xmlns="http://www.w3.org/2000/svg" font-family="Arial, sans-serif">
<rect width="680" height="616" fill="#ffffff"/>
<defs><marker id="arrow" viewBox="0 0 10 10" refX="8" refY="5" markerWidth="6" markerHeight="6" orient="auto-start-reverse"><path d="M2 1L8 5L2 9" fill="none" stroke="#444444" stroke-width="1.5" stroke-linecap="round" stroke-linejoin="round"/></marker></defs>

<rect x="210" y="40" width="260" height="56" rx="8" fill="#F1EFE8" stroke="#5F5E5A" stroke-width="1"/>
<text x="340" y="62" text-anchor="middle" font-size="14" font-weight="bold" fill="#2C2C2A">generate_dataset.py</text>
<text x="340" y="80" text-anchor="middle" font-size="12" fill="#444441">Synthetic data: 1000 students</text>
<line x1="340" y1="96" x2="340" y2="130" stroke="#444444" stroke-width="1.5" marker-end="url(#arrow)"/>

<rect x="210" y="136" width="260" height="56" rx="8" fill="#E1F5EE" stroke="#0F6E56" stroke-width="1"/>
<text x="340" y="158" text-anchor="middle" font-size="14" font-weight="bold" fill="#04342C">utils.py</text>
<text x="340" y="176" text-anchor="middle" font-size="12" fill="#085041">18 shared engineered features</text>
<line x1="340" y1="192" x2="340" y2="226" stroke="#444444" stroke-width="1.5" marker-end="url(#arrow)"/>

<rect x="210" y="232" width="260" height="56" rx="8" fill="#F1EFE8" stroke="#5F5E5A" stroke-width="1"/>
<text x="340" y="254" text-anchor="middle" font-size="14" font-weight="bold" fill="#2C2C2A">data_prep.py</text>
<text x="340" y="272" text-anchor="middle" font-size="12" fill="#444441">Select top 20, 80/20 split</text>
<line x1="340" y1="288" x2="340" y2="322" stroke="#444444" stroke-width="1.5" marker-end="url(#arrow)"/>

<rect x="210" y="328" width="260" height="56" rx="8" fill="#FAECE7" stroke="#993C1D" stroke-width="1"/>
<text x="340" y="350" text-anchor="middle" font-size="14" font-weight="bold" fill="#4A1B0C">model.py</text>
<text x="340" y="368" text-anchor="middle" font-size="12" fill="#712B13">Train &amp; tune 5 classifiers</text>
<line x1="340" y1="384" x2="340" y2="418" stroke="#444444" stroke-width="1.5" marker-end="url(#arrow)"/>

<rect x="210" y="424" width="260" height="56" rx="8" fill="#FAECE7" stroke="#993C1D" stroke-width="1"/>
<text x="340" y="446" text-anchor="middle" font-size="14" font-weight="bold" fill="#4A1B0C">Evaluate &amp; explain</text>
<text x="340" y="464" text-anchor="middle" font-size="12" fill="#712B13">Best model by macro-F1 + SHAP</text>
<line x1="340" y1="480" x2="340" y2="514" stroke="#444444" stroke-width="1.5" marker-end="url(#arrow)"/>

<rect x="210" y="520" width="260" height="56" rx="8" fill="#EAF3DE" stroke="#3B6D11" stroke-width="1"/>
<text x="340" y="542" text-anchor="middle" font-size="14" font-weight="bold" fill="#173404">model.pkl</text>
<text x="340" y="560" text-anchor="middle" font-size="12" fill="#27500A">Scaler + classifier pipeline</text>
</svg>
